<svg id="Layer_1" data-name="Layer 1" xmlns="http://www.w3.org/2000/svg" viewBox="0 0 255 217"><defs><style>.cls-1{fill:#725036;}</style></defs><circle class="cls-1" cx="3.5" cy="3.5" r="3.5"/><circle class="cls-1" cx="34.5" cy="3.5" r="3.5"/><circle class="cls-1" cx="65.5" cy="3.5" r="3.5"/><circle class="cls-1" cx="96.5" cy="3.5" r="3.5"/><circle class="cls-1" cx="127.5" cy="3.5" r="3.5"/><circle class="cls-1" cx="158.5" cy="3.5" r="3.5"/><circle class="cls-1" cx="189.5" cy="3.5" r="3.5"/><circle class="cls-1" cx="220.5" cy="3.5" r="3.5"/><circle class="cls-1" cx="251.5" cy="3.5" r="3.5"/><circle class="cls-1" cx="3.5" cy="33.5" r="3.5"/><circle class="cls-1" cx="34.5" cy="33.5" r="3.5"/><circle class="cls-1" cx="65.5" cy="33.5" r="3.5"/><circle class="cls-1" cx="96.5" cy="33.5" r="3.5"/><circle class="cls-1" cx="127.5" cy="33.5" r="3.5"/><circle class="cls-1" cx="158.5" cy="33.5" r="3.5"/><circle class="cls-1" cx="189.5" cy="33.5" r="3.5"/><circle class="cls-1" cx="220.5" cy="33.5" r="3.5"/><circle class="cls-1" cx="251.5" cy="33.5" r="3.5"/><circle class="cls-1" cx="3.5" cy="63.5" r="3.5"/><circle class="cls-1" cx="34.5" cy="63.5" r="3.5"/><circle class="cls-1" cx="65.5" cy="63.5" r="3.5"/><circle class="cls-1" cx="96.5" cy="63.5" r="3.5"/><circle class="cls-1" cx="127.5" cy="63.5" r="3.5"/><circle class="cls-1" cx="158.5" cy="63.5" r="3.5"/><circle class="cls-1" cx="189.5" cy="63.5" r="3.5"/><circle class="cls-1" cx="220.5" cy="63.5" r="3.5"/><circle class="cls-1" cx="251.5" cy="63.5" r="3.5"/><circle class="cls-1" cx="3.5" cy="93.5" r="3.5"/><circle class="cls-1" cx="34.5" cy="93.5" r="3.5"/><circle class="cls-1" cx="65.5" cy="93.5" r="3.5"/><circle class="cls-1" cx="96.5" cy="93.5" r="3.5"/><circle class="cls-1" cx="127.5" cy="93.5" r="3.5"/><circle class="cls-1" cx="158.5" cy="93.5" r="3.5"/><circle class="cls-1" cx="189.5" cy="93.5" r="3.5"/><circle class="cls-1" cx="220.5" cy="93.5" r="3.5"/><circle class="cls-1" cx="251.5" cy="93.5" r="3.5"/><circle class="cls-1" cx="3.5" cy="123.5" r="3.5"/><circle class="cls-1" cx="34.5" cy="123.5" r="3.5"/><circle class="cls-1" cx="65.5" cy="123.5" r="3.5"/><circle class="cls-1" cx="96.5" cy="123.5" r="3.5"/><circle class="cls-1" cx="127.5" cy="123.5" r="3.5"/><circle class="cls-1" cx="158.5" cy="123.5" r="3.5"/><circle class="cls-1" cx="189.5" cy="123.5" r="3.5"/><circle class="cls-1" cx="220.5" cy="123.5" r="3.5"/><circle class="cls-1" cx="251.5" cy="123.5" r="3.5"/><circle class="cls-1" cx="3.5" cy="153.5" r="3.5"/><circle class="cls-1" cx="34.5" cy="153.5" r="3.5"/><circle class="cls-1" cx="65.5" cy="153.5" r="3.5"/><circle class="cls-1" cx="96.5" cy="153.5" r="3.5"/><circle class="cls-1" cx="127.5" cy="153.5" r="3.5"/><circle class="cls-1" cx="158.5" cy="153.5" r="3.5"/><circle class="cls-1" cx="189.5" cy="153.5" r="3.5"/><circle class="cls-1" cx="220.5" cy="153.5" r="3.5"/><circle class="cls-1" cx="251.5" cy="153.5" r="3.5"/><circle class="cls-1" cx="3.5" cy="183.5" r="3.5"/><circle class="cls-1" cx="34.5" cy="183.5" r="3.5"/><circle class="cls-1" cx="65.5" cy="183.5" r="3.5"/><circle class="cls-1" cx="96.5" cy="183.5" r="3.5"/><circle class="cls-1" cx="127.5" cy="183.5" r="3.5"/><circle class="cls-1" cx="158.5" cy="183.5" r="3.5"/><circle class="cls-1" cx="189.5" cy="183.5" r="3.5"/><circle class="cls-1" cx="220.5" cy="183.5" r="3.5"/><circle class="cls-1" cx="251.5" cy="183.5" r="3.5"/><circle class="cls-1" cx="3.5" cy="213.5" r="3.5"/><circle class="cls-1" cx="34.5" cy="213.5" r="3.5"/><circle class="cls-1" cx="65.5" cy="213.5" r="3.5"/><circle class="cls-1" cx="96.5" cy="213.5" r="3.5"/><circle class="cls-1" cx="127.5" cy="213.5" r="3.5"/><circle class="cls-1" cx="158.5" cy="213.5" r="3.5"/><circle class="cls-1" cx="189.5" cy="213.5" r="3.5"/><circle class="cls-1" cx="220.5" cy="213.5" r="3.5"/><circle class="cls-1" cx="251.5" cy="213.5" r="3.5"/></svg>